# xmcd
#
# Track frame offsets: 
#        150
#        18965
#        37185
#        56047
#        75457
#        98742
#        120240
#        140825
#        165825
#        189180
#        208717
#        226445
#        243557
#
# Disc length: 3408 seconds
#
# Revision: 4
# Processed by: cddbd v1.5.2PL0 Copyright (c) Steve Scherf et al.
# Submitted via: ExactAudioCopy v1.0b3
#
DISCID=a30d4e0d
DTITLE=Clarence 'Gatemouth' Brown - Gate Swings
DYEAR=1997
DGENRE=Blues
TTITLE0=Midnight Hour
TTITLE1=Honey Dew
TTITLE2=Toughen Up
TTITLE3=Take The 'A' Train
TTITLE4=Too Late Baby
TTITLE5=Gate's Blues Waltz
TTITLE6=Caldonia
TTITLE7=Bits And Pieces
TTITLE8=River's Invitation
TTITLE9=One O'Clock Jump
TTITLE10=Take Me Back Baby
TTITLE11=Since I Fell For You
TTITLE12=Flying Home
EXTD=
EXTT0=
EXTT1=\n
EXTT2=
EXTT3=
EXTT4=
EXTT5=
EXTT6=
EXTT7=
EXTT8=
EXTT9=
EXTT10=
EXTT11=
EXTT12=
PLAYORDER=
